<?xml version="1.0" standalone="no"?>
<!DOCTYPE svg PUBLIC "-//W3C//DTD SVG 20010904//EN"
 "http://www.w3.org/TR/2001/REC-SVG-20010904/DTD/svg10.dtd">
<svg version="1.0" xmlns="http://www.w3.org/2000/svg"
 width="1000.000000pt" height="637.000000pt" viewBox="0 0 1000.000000 637.000000"
 preserveAspectRatio="xMidYMid meet">

<g transform="translate(0.000000,637.000000) scale(0.100000,-0.100000)"
fill="#000000" stroke="none">
<path d="M0 3185 l0 -3185 5000 0 5000 0 0 3185 0 3185 -5000 0 -5000 0 0
-3185z m5375 1935 c354 -41 697 -177 988 -393 100 -74 277 -245 360 -347 94
-117 181 -256 251 -401 138 -288 197 -550 197 -874 0 -339 -65 -616 -214 -910
-31 -61 -67 -128 -80 -149 l-25 -40 -15 30 c-8 16 -49 103 -92 193 l-76 163
22 52 c162 375 178 820 43 1207 -197 565 -659 971 -1257 1101 -89 19 -132 22
-332 22 -200 0 -243 -3 -332 -22 -156 -34 -276 -76 -418 -147 -533 -266 -883
-787 -924 -1379 -47 -684 314 -1317 924 -1621 146 -73 261 -113 415 -147 92
-20 133 -22 335 -22 253 0 338 12 530 75 104 34 354 155 362 174 2 8 -24 69
-60 137 -35 68 -162 317 -282 553 -292 578 -446 878 -455 888 -3 4 -68 -118
-143 -272 l-137 -280 -37 -6 c-210 -35 -477 -162 -675 -322 -43 -34 -78 -60
-78 -56 0 3 151 303 336 667 185 364 424 834 532 1046 107 212 196 386 197
387 2 3 268 -524 864 -1708 l511 -1016 -82 -79 c-150 -143 -294 -243 -493
-339 -292 -142 -568 -205 -898 -205 -687 0 -1321 348 -1701 932 -124 191 -230
453 -281 698 -36 169 -46 485 -21 663 128 912 834 1618 1743 1742 120 16 376
18 498 5z"/>
</g>
</svg>
